<svg id="visual" viewBox="0 0 960 540" width="960" height="540" xmlns="http://www.w3.org/2000/svg" xmlns:xlink="http://www.w3.org/1999/xlink" version="1.1"><g stroke-width="1" stroke-linejoin="bevel"><path d="M526.3 257L566.3 191L460.7 175Z" fill="#0b1b26" stroke="#0b1b26"></path><path d="M460.7 175L400.7 238L526.3 257Z" fill="#223b47" stroke="#223b47"></path><path d="M526.3 257L632 211L566.3 191Z" fill="#061621" stroke="#061621"></path><path d="M386.7 379L567.3 324L526.3 257Z" fill="#162a36" stroke="#162a36"></path><path d="M526.3 257L567.3 324L632 211Z" fill="#223b47" stroke="#223b47"></path><path d="M632 211L570.3 80L566.3 191Z" fill="#162a36" stroke="#162a36"></path><path d="M566.3 191L570.3 80L460.7 175Z" fill="#26404c" stroke="#26404c"></path><path d="M570.3 80L457.7 51L460.7 175Z" fill="#122531" stroke="#122531"></path><path d="M460.7 175L341 145L400.7 238Z" fill="#122531" stroke="#122531"></path><path d="M457.7 51L341 145L460.7 175Z" fill="#061621" stroke="#061621"></path><path d="M567.3 324L669 289L632 211Z" fill="#122531" stroke="#122531"></path><path d="M632 211L674 59L570.3 80Z" fill="#122531" stroke="#122531"></path><path d="M567.3 324L658 320L669 289Z" fill="#1e3541" stroke="#1e3541"></path><path d="M341 145L329 281L400.7 238Z" fill="#0b1b26" stroke="#0b1b26"></path><path d="M400.7 238L386.7 379L526.3 257Z" fill="#1a2f3c" stroke="#1a2f3c"></path><path d="M570.3 80L518.3 0L457.7 51Z" fill="#26404c" stroke="#26404c"></path><path d="M457.7 51L301 94L341 145Z" fill="#00101c" stroke="#00101c"></path><path d="M329 281L386.7 379L400.7 238Z" fill="#2a4652" stroke="#2a4652"></path><path d="M567.3 324L609 428L658 320Z" fill="#1a2f3c" stroke="#1a2f3c"></path><path d="M762.7 258L632 211L669 289Z" fill="#122531" stroke="#122531"></path><path d="M762.7 258L720.7 147L632 211Z" fill="#1a2f3c" stroke="#1a2f3c"></path><path d="M570.3 80L608 0L518.3 0Z" fill="#2a4652" stroke="#2a4652"></path><path d="M720.7 147L674 59L632 211Z" fill="#0b1b26" stroke="#0b1b26"></path><path d="M518.3 0L418.7 0L457.7 51Z" fill="#122531" stroke="#122531"></path><path d="M674 59L608 0L570.3 80Z" fill="#122531" stroke="#122531"></path><path d="M418.7 0L301 94L457.7 51Z" fill="#2a4652" stroke="#2a4652"></path><path d="M341 145L179.3 160L329 281Z" fill="#26404c" stroke="#26404c"></path><path d="M720.7 147L731.7 110L674 59Z" fill="#26404c" stroke="#26404c"></path><path d="M674 59L714.7 0L608 0Z" fill="#00101c" stroke="#00101c"></path><path d="M386.7 379L530.3 447L567.3 324Z" fill="#26404c" stroke="#26404c"></path><path d="M530.3 447L609 428L567.3 324Z" fill="#122531" stroke="#122531"></path><path d="M329 281L314 360L386.7 379Z" fill="#162a36" stroke="#162a36"></path><path d="M386.7 379L397.7 483L530.3 447Z" fill="#1a2f3c" stroke="#1a2f3c"></path><path d="M193.3 341L314 360L329 281Z" fill="#162a36" stroke="#162a36"></path><path d="M774.7 387L762.7 258L669 289Z" fill="#2a4652" stroke="#2a4652"></path><path d="M720.7 147L834.3 207L731.7 110Z" fill="#061621" stroke="#061621"></path><path d="M774.7 387L669 289L658 320Z" fill="#061621" stroke="#061621"></path><path d="M418.7 0L316 0L301 94Z" fill="#0e202b" stroke="#0e202b"></path><path d="M859.3 0L714.7 0L731.7 110Z" fill="#00101c" stroke="#00101c"></path><path d="M731.7 110L714.7 0L674 59Z" fill="#122531" stroke="#122531"></path><path d="M679 540L718.7 415L609 428Z" fill="#0e202b" stroke="#0e202b"></path><path d="M609 428L718.7 415L658 320Z" fill="#1e3541" stroke="#1e3541"></path><path d="M306 433L397.7 483L386.7 379Z" fill="#122531" stroke="#122531"></path><path d="M530.3 447L547.3 540L609 428Z" fill="#2a4652" stroke="#2a4652"></path><path d="M193.3 341L306 433L314 360Z" fill="#0b1b26" stroke="#0b1b26"></path><path d="M314 360L306 433L386.7 379Z" fill="#061621" stroke="#061621"></path><path d="M718.7 415L774.7 387L658 320Z" fill="#0e202b" stroke="#0e202b"></path><path d="M316 0L215.3 72L301 94Z" fill="#2a4652" stroke="#2a4652"></path><path d="M301 94L179.3 160L341 145Z" fill="#00101c" stroke="#00101c"></path><path d="M865.3 258L834.3 207L762.7 258Z" fill="#162a36" stroke="#162a36"></path><path d="M762.7 258L834.3 207L720.7 147Z" fill="#223b47" stroke="#223b47"></path><path d="M215.3 72L179.3 160L301 94Z" fill="#00101c" stroke="#00101c"></path><path d="M179.3 160L186.3 284L329 281Z" fill="#0e202b" stroke="#0e202b"></path><path d="M397.7 483L547.3 540L530.3 447Z" fill="#2a4652" stroke="#2a4652"></path><path d="M718.7 415L853.3 443L774.7 387Z" fill="#0b1b26" stroke="#0b1b26"></path><path d="M186.3 284L193.3 341L329 281Z" fill="#061621" stroke="#061621"></path><path d="M280 540L396.7 540L397.7 483Z" fill="#00101c" stroke="#00101c"></path><path d="M397.7 483L396.7 540L547.3 540Z" fill="#061621" stroke="#061621"></path><path d="M280 540L397.7 483L306 433Z" fill="#2a4652" stroke="#2a4652"></path><path d="M889.3 324L865.3 258L762.7 258Z" fill="#0e202b" stroke="#0e202b"></path><path d="M834.3 207L868.3 112L731.7 110Z" fill="#122531" stroke="#122531"></path><path d="M960 150L868.3 112L834.3 207Z" fill="#0e202b" stroke="#0e202b"></path><path d="M547.3 540L679 540L609 428Z" fill="#0e202b" stroke="#0e202b"></path><path d="M774.7 387L889.3 324L762.7 258Z" fill="#00101c" stroke="#00101c"></path><path d="M215.3 72L119.7 60L179.3 160Z" fill="#2a4652" stroke="#2a4652"></path><path d="M316 0L188.3 0L215.3 72Z" fill="#061621" stroke="#061621"></path><path d="M186.3 284L90.7 398L193.3 341Z" fill="#162a36" stroke="#162a36"></path><path d="M179.3 160L125.7 237L186.3 284Z" fill="#061621" stroke="#061621"></path><path d="M93.7 153L125.7 237L179.3 160Z" fill="#26404c" stroke="#26404c"></path><path d="M853.3 443L889.3 324L774.7 387Z" fill="#0b1b26" stroke="#0b1b26"></path><path d="M865.3 258L960 150L834.3 207Z" fill="#122531" stroke="#122531"></path><path d="M868.3 112L859.3 0L731.7 110Z" fill="#223b47" stroke="#223b47"></path><path d="M960 67L859.3 0L868.3 112Z" fill="#1e3541" stroke="#1e3541"></path><path d="M193.3 341L196.3 459L306 433Z" fill="#1a2f3c" stroke="#1a2f3c"></path><path d="M110.7 423L196.3 459L193.3 341Z" fill="#1e3541" stroke="#1e3541"></path><path d="M679 540L735.7 540L718.7 415Z" fill="#223b47" stroke="#223b47"></path><path d="M196.3 459L280 540L306 433Z" fill="#2a4652" stroke="#2a4652"></path><path d="M188.3 0L119.7 60L215.3 72Z" fill="#1a2f3c" stroke="#1a2f3c"></path><path d="M735.7 540L853.3 443L718.7 415Z" fill="#2a4652" stroke="#2a4652"></path><path d="M119.7 60L93.7 153L179.3 160Z" fill="#1e3541" stroke="#1e3541"></path><path d="M90.7 398L110.7 423L193.3 341Z" fill="#2a4652" stroke="#2a4652"></path><path d="M188.3 0L111.7 0L119.7 60Z" fill="#162a36" stroke="#162a36"></path><path d="M0 61L0 185L93.7 153Z" fill="#061621" stroke="#061621"></path><path d="M960 359L960 254L889.3 324Z" fill="#2a4652" stroke="#2a4652"></path><path d="M889.3 324L960 254L865.3 258Z" fill="#26404c" stroke="#26404c"></path><path d="M960 254L960 150L865.3 258Z" fill="#223b47" stroke="#223b47"></path><path d="M90.7 398L186.3 284L125.7 237Z" fill="#061621" stroke="#061621"></path><path d="M196.3 459L173.3 540L280 540Z" fill="#00101c" stroke="#00101c"></path><path d="M0 342L90.7 398L125.7 237Z" fill="#0b1b26" stroke="#0b1b26"></path><path d="M735.7 540L830.3 540L853.3 443Z" fill="#00101c" stroke="#00101c"></path><path d="M853.3 443L960 359L889.3 324Z" fill="#162a36" stroke="#162a36"></path><path d="M960 150L960 67L868.3 112Z" fill="#122531" stroke="#122531"></path><path d="M960 462L960 359L853.3 443Z" fill="#223b47" stroke="#223b47"></path><path d="M89.7 540L173.3 540L110.7 423Z" fill="#122531" stroke="#122531"></path><path d="M110.7 423L173.3 540L196.3 459Z" fill="#1a2f3c" stroke="#1a2f3c"></path><path d="M960 67L960 0L859.3 0Z" fill="#0e202b" stroke="#0e202b"></path><path d="M0 61L93.7 153L119.7 60Z" fill="#1a2f3c" stroke="#1a2f3c"></path><path d="M93.7 153L0 185L125.7 237Z" fill="#0e202b" stroke="#0e202b"></path><path d="M0 185L0 258L125.7 237Z" fill="#0b1b26" stroke="#0b1b26"></path><path d="M0 465L89.7 540L110.7 423Z" fill="#223b47" stroke="#223b47"></path><path d="M960 540L960 462L853.3 443Z" fill="#1e3541" stroke="#1e3541"></path><path d="M0 258L0 342L125.7 237Z" fill="#0e202b" stroke="#0e202b"></path><path d="M111.7 0L0 61L119.7 60Z" fill="#0e202b" stroke="#0e202b"></path><path d="M0 465L110.7 423L90.7 398Z" fill="#1e3541" stroke="#1e3541"></path><path d="M111.7 0L0 0L0 61Z" fill="#162a36" stroke="#162a36"></path><path d="M830.3 540L960 540L853.3 443Z" fill="#162a36" stroke="#162a36"></path><path d="M0 342L0 465L90.7 398Z" fill="#061621" stroke="#061621"></path><path d="M0 465L0 540L89.7 540Z" fill="#1a2f3c" stroke="#1a2f3c"></path></g></svg>